# Blender 3.5.0
# www.blender.org
mtllib Rock.mtl
o Cube
v 0.896930 -0.116701 -1.078061
v 0.736314 -0.076033 1.066762
v -1.052088 -0.064600 0.954513
v -0.692441 -0.114299 -0.835835
v 1.303753 1.083753 -1.023542
v 0.444005 1.032712 1.513821
v -1.019775 1.174950 1.105961
v -0.681862 1.180458 -1.481573
v 1.045407 -0.157597 -0.147996
v 0.067265 -0.072713 -0.783522
v 1.200361 0.538245 -1.221685
v -0.154563 -0.114500 1.228987
v 1.155268 0.478039 1.381585
v -1.094633 -0.254018 -0.118459
v -1.648060 0.452009 0.853586
v -1.185727 0.481559 -1.133555
v 0.975431 1.246558 0.047895
v 0.105258 1.126820 -1.585067
v -0.344848 1.152380 1.730000
v -1.177093 1.303243 0.009798
v -0.015789 -0.312706 -0.060242
v 0.046107 1.351565 -0.253730
v 1.175182 0.692469 0.169032
v 0.260077 0.452640 1.365451
v -1.648881 0.429819 -0.064031
v -0.199824 0.336820 -1.536424
v 1.008866 -0.126459 0.470257
v -0.321458 -0.060305 -0.702046
v 1.385825 0.807576 -1.181814
v -0.537873 -0.057997 1.154378
v 0.936321 0.677546 1.426494
v -0.862364 -0.219203 -0.537108
v -1.281588 0.883991 1.218077
v -0.974527 0.926074 -1.431442
v 0.808457 1.346412 0.902078
v -0.174992 1.147173 -1.801163
v -0.610285 1.147948 1.327881
v -1.356023 1.245036 -0.716849
v 1.042022 -0.190494 -0.637866
v 0.468949 -0.142859 -1.026806
v 1.081272 0.175115 -1.287556
v 0.243586 -0.141476 1.191072
v 1.014587 0.183491 1.312948
v -1.155731 -0.217847 0.459469
v -1.571341 0.110279 0.770709
v -1.063276 0.074521 -1.015607
v 1.231954 1.216866 -0.594471
v 0.770454 1.122192 -1.299703
v -0.065279 1.102928 1.796044
v -1.176430 1.281231 0.646380
v -0.476225 -0.274043 -0.037390
v 0.480423 -0.312115 -0.111060
v 0.172793 -0.188473 -0.532460
v -0.106274 -0.274351 0.595963
v -0.198010 1.360380 0.630818
v 0.062998 1.276304 -0.994314
v 0.611501 1.352344 -0.290780
v -0.603343 1.343584 -0.011276
v 1.267461 0.630730 1.008356
v 1.267107 0.600208 -0.689727
v 1.268899 0.241091 -0.063884
v 1.050912 1.068502 0.197512
v -1.043570 0.402928 1.289593
v 0.667029 0.439932 1.448684
v -0.135120 0.156677 1.505020
v -0.066870 0.652060 1.602193
v -1.759897 0.319614 -0.724614
v -1.646483 0.462612 0.459024
v -1.548443 -0.153801 -0.255587
v -1.483055 1.068517 0.045330
v -0.775458 0.497559 -1.402503
v 0.556317 0.449266 -1.496503
v 0.153226 0.839249 -1.832230
v -0.180515 0.060946 -1.233899
v -0.630920 -0.226328 0.592326
v -0.677921 1.329703 0.698183
v 1.115930 1.067893 0.980967
v -0.944509 0.743625 1.392342
v -1.719440 0.916506 -0.699776
v -0.751048 0.149059 -1.123006
v -0.359688 -0.219676 -0.596748
v 0.548058 -0.284113 -0.657622
v 0.383454 -0.298149 0.533170
v 0.342781 1.370886 0.863692
v 0.801564 1.333314 -0.716665
v -0.544178 1.290048 -0.889409
v 1.347667 0.189763 0.746821
v 1.323792 0.127379 -0.856060
v 1.423543 0.897206 -0.707035
v -0.706694 0.190636 1.346937
v 0.494274 0.153436 1.399456
v 0.524189 0.691410 1.410453
v -1.346437 -0.078697 -0.808084
v -1.550380 0.033513 0.487642
v -1.434319 1.017100 0.746778
v -0.263198 0.916780 -1.716774
v 0.802037 0.850318 -1.528586
v 0.512712 0.114694 -1.198383
vn -0.0783 -0.9792 0.1872
vn -0.2929 -0.8343 0.4670
vn -0.2368 -0.9526 0.1909
vn -0.0706 0.9860 0.1511
vn -0.3190 0.8433 0.4325
vn -0.3155 0.8741 0.3694
vn 0.7396 0.6013 0.3025
vn 0.4117 0.5341 0.7384
vn 0.4112 0.2637 0.8725
vn -0.6151 0.3871 0.6869
vn -0.3944 -0.0220 0.9187
vn -0.3826 0.9067 -0.1777
vn -0.5627 0.1606 -0.8109
vn -0.8770 0.3978 -0.2695
vn -0.1870 -0.7057 -0.6834
vn 0.0763 -0.8295 -0.5532
vn -0.2305 -0.5636 -0.7932
vn -0.0571 -0.9982 -0.0201
vn -0.0712 -0.9740 -0.2150
vn 0.0295 -0.9340 -0.3561
vn 0.0934 -0.9949 -0.0379
vn -0.1092 -0.9577 -0.2661
vn -0.0308 -0.9874 -0.1554
vn 0.0915 -0.8916 0.4434
vn -0.0684 -0.9861 0.1511
vn 0.1099 -0.9850 0.1330
vn 0.0367 0.9881 0.1492
vn -0.2627 0.7604 0.5939
vn 0.1348 0.5288 0.8379
vn 0.1447 0.9797 -0.1389
vn -0.0169 0.9986 -0.0508
vn 0.1073 0.9942 0.0034
vn -0.0516 0.9983 -0.0275
vn -0.0446 0.9919 -0.1186
vn 0.8639 -0.4817 0.1468
vn 0.6555 0.0009 0.7552
vn 0.4415 -0.6349 0.6340
vn 0.9787 -0.2035 0.0269
vn 0.9814 -0.1904 0.0236
vn 0.8839 -0.4229 -0.1999
vn 0.5278 0.8494 0.0077
vn 0.8794 0.4590 0.1267
vn 0.9929 0.0758 0.0912
vn -0.4073 -0.2840 0.8680
vn -0.7013 -0.6077 0.3728
vn -0.3186 -0.4825 0.8159
vn 0.1457 -0.4454 0.8834
vn 0.0047 -0.1609 0.9870
vn -0.0607 -0.2556 0.9649
vn 0.0353 -0.5287 0.8481
vn 0.0992 -0.2199 0.9705
vn -0.8878 -0.2364 -0.3949
vn -0.3409 -0.8088 -0.4791
vn -0.7357 -0.6547 0.1733
vn -0.9946 -0.0110 0.1037
vn -0.5164 -0.8538 -0.0660
vn -0.3438 0.9253 0.1600
vn -0.7825 0.6148 0.0984
vn -0.7765 0.5801 0.2458
vn -0.3999 -0.4268 -0.8111
vn -0.2522 -0.0163 -0.9675
vn 0.2317 -0.4685 -0.8525
vn 0.0928 0.1155 -0.9890
vn 0.4424 0.2370 -0.8649
vn -0.0338 -0.6962 -0.7171
vn -0.1263 -0.8998 -0.4177
vn -0.0687 -0.8895 -0.4517
vn -0.1198 -0.9920 -0.0402
vn -0.0305 -0.9967 -0.0751
vn -0.1884 -0.8567 0.4802
vn -0.0542 0.9954 0.0793
vn -0.2826 0.9592 0.0065
vn 0.9265 0.3038 0.2221
vn 0.9811 0.1866 0.0516
vn 0.2784 0.9428 0.1834
vn -0.9070 -0.0465 0.4185
vn -0.5304 -0.2824 -0.7993
vn -0.1071 -0.6083 -0.7865
vn 0.0101 -0.8112 -0.5847
vn -0.2246 -0.8084 -0.5441
vn 0.2401 -0.8268 -0.5086
vn 0.5107 -0.8574 0.0629
vn 0.4090 -0.9086 -0.0845
vn 0.4758 -0.8706 0.1254
vn 0.3152 -0.8646 0.3913
vn 0.4783 0.8723 0.1015
vn 0.5839 0.7316 -0.3519
vn 0.2356 0.8422 -0.4850
vn 0.0294 0.9843 -0.1743
vn 0.0823 0.6571 -0.7493
vn 0.2586 0.8263 -0.5004
vn -0.2694 0.8430 -0.4656
vn 0.7693 -0.2139 -0.6021
vn 0.4421 -0.4913 -0.7505
vn 0.8620 -0.0365 -0.5055
vn -0.1137 -0.8860 0.4496
vn -0.0125 -0.0898 0.9959
vn -0.9979 0.0640 0.0093
vt 0.324683 0.722893
vt 0.353162 0.419686
vt 0.668575 0.311882
vt 0.336809 0.674909
vt 0.069266 0.722735
vt 0.082613 0.506661
vt 0.481603 0.323059
vt 0.116277 0.014773
vt 0.646477 0.441109
vt 0.794976 0.248970
vt 0.155630 0.402329
vt 0.905653 0.682602
vt 0.336809 0.140426
vt 0.489191 0.000000
vt 0.218381 0.752553
vt 0.339988 0.536299
vt 0.336809 0.833560
vt 0.560004 0.310321
vt 0.693981 0.150197
vt 0.517650 0.412671
vt 0.053708 0.620010
vt 0.477461 0.726331
vt 0.907061 0.133559
vt 0.223692 0.502410
vt 0.054401 0.402498
vt 0.869574 0.490922
vt 0.431026 0.176751
vt 0.683844 0.711964
vt 0.662917 0.562066
vt 0.056221 0.145884
vt 0.582099 0.007382
vt 0.273048 0.064123
vt 0.042023 0.402498
vt 0.693981 0.268226
vt 0.999879 0.706758
vt 0.258354 0.321530
vt 0.766741 0.707183
vt 0.220811 0.635843
vt 0.165692 0.199396
vt 0.539575 0.580737
vt 0.791582 0.866218
vt 0.818683 0.137473
vt 0.758928 0.488146
vt 0.565426 0.199969
vt 0.143231 0.752483
vt 0.340137 0.610197
vt 0.512673 0.310590
vt 0.336920 0.785916
vt 0.586459 0.423461
vt 0.058285 0.569867
vt 0.870663 0.174892
vt 0.448079 0.354288
vt 0.270084 0.523882
vt 0.916733 0.604517
vt 0.460672 0.063535
vt 0.000000 0.241327
vt 0.854473 0.349296
vt 0.672331 0.661064
vt 0.563922 0.000091
vt 0.316518 0.068429
vt 0.099783 0.387655
vt 0.944083 0.694636
vt 0.369246 0.000842
vt 0.674914 0.687648
vt 0.335575 0.267841
vt 0.336833 0.476818
vt 0.278588 0.749240
vt 0.320949 0.673747
vt 0.619708 0.321108
vt 0.429528 0.400325
vt 0.693822 0.237100
vt 0.060049 0.668982
vt 0.404599 0.713241
vt 0.019832 0.742597
vt 0.913859 0.076969
vt 0.152906 0.498683
vt 0.090851 0.431859
vt 0.867108 0.417288
vt 0.447322 0.276247
vt 0.672331 0.787452
vt 0.085645 0.065345
vt 0.670954 0.491413
vt 0.639569 0.392860
vt 0.187902 0.035191
vt 0.011393 0.383384
vt 0.720806 0.251159
vt 0.206316 0.378186
vt 0.844101 0.700647
vt 0.215363 0.578539
vt 0.226456 0.694739
vt 0.266533 0.646047
vt 0.559475 0.342029
vt 0.140662 0.629249
vt 0.115533 0.299946
vt 0.226136 0.127633
vt 0.116225 0.149680
vt 0.206193 0.274302
vt 0.934356 0.187628
vt 0.520455 0.684734
vt 0.529375 0.479105
vt 0.439840 0.553878
vt 0.731678 0.707183
vt 0.622627 0.581780
vt 0.006598 0.482318
vt 0.939564 0.506329
vt 0.791426 0.711743
vt 0.694133 0.143704
vt 0.855242 0.125920
vt 0.786060 0.070157
vt 0.000000 0.608449
vt 1.000000 0.606532
vt 0.744126 0.821215
vt 0.758736 0.168010
vt 0.348488 0.225548
vt 0.677773 0.459778
vt 0.821728 0.494375
vt 0.747834 0.361119
vt 0.232244 0.440506
vt 0.766456 0.640000
vt 0.491069 0.166304
vt 0.477201 0.361119
vt 0.642437 0.169965
vt 0.608937 0.072162
vt 0.293309 0.025246
vt 0.387737 0.801509
vt 0.556413 0.271543
vt 0.137636 0.563411
vt 0.155028 0.344089
vt 0.896175 0.282885
vt 0.617335 0.678426
vt 0.752056 0.707183
vt 0.949240 0.587705
vt 0.336809 0.082005
vt 0.672331 0.596657
vt 0.384519 0.726331
vt 0.485748 0.254952
vt 0.506205 0.350977
vt 0.276846 0.583529
vt 0.609960 0.361119
vt 0.288525 0.695621
vt 0.149628 0.688747
vt 0.808347 0.361119
vt 0.046020 0.277128
vt 0.133867 0.094672
vt 0.273683 0.187557
vt 0.422948 0.654063
vt 0.422729 0.459207
vt 0.744126 0.814485
vt 0.604166 0.482239
vt 0.736508 0.092307
vt 0.016271 0.536299
vt 0.857058 0.070133
vt 0.012308 0.682984
vt 0.829103 0.182611
vt 0.685316 0.388716
vt 0.408067 0.318081
vt 0.291247 0.454530
vt 0.834672 0.401576
vt 0.130148 0.436240
vt 0.853441 0.628842
vt 0.554998 0.057463
vt 0.661203 0.071636
vt 0.207942 0.000000
vt 0.579472 0.365264
vt 0.628288 0.255903
s 1
usemtl Material
f 75/127/1 3/6/2 44/76/3
f 76/128/4 7/11/5 37/61/6
f 77/129/7 6/10/8 31/51/9
f 37/62/6 33/54/10 78/132/11
f 38/63/12 34/55/13 79/133/14
f 80/136/15 4/7/16 46/79/17
f 51/89/18 32/53/19 81/138/20
f 52/90/21 53/91/22 82/140/23
f 42/72/24 54/93/25 83/141/26
f 84/143/27 19/33/28 49/85/29
f 85/144/30 22/39/31 57/96/32
f 38/65/12 58/97/33 86/145/34
f 87/146/35 13/22/36 43/73/37
f 60/100/38 61/101/39 88/147/40
f 47/80/41 62/102/42 89/148/43
f 63/104/44 45/77/45 90/151/46
f 91/152/47 24/42/48 65/109/49
f 49/86/29 66/113/50 92/154/51
f 67/114/52 46/79/17 93/156/53
f 94/158/54 25/43/55 69/117/56
f 50/88/57 70/119/58 95/160/59
f 71/120/60 34/55/13 96/161/61
f 72/122/62 73/123/63 97/162/64
f 98/165/65 10/18/66 74/126/67
f 51/89/18 44/76/3 14/24/68
f 54/93/25 51/89/18 21/38/69
f 54/93/25 30/50/70 75/127/1
f 55/94/71 37/61/6 19/33/28
f 58/97/33 55/94/71 22/39/31
f 20/36/72 76/128/4 58/97/33
f 59/98/73 31/51/9 13/23/36
f 23/40/74 77/130/7 59/99/73
f 62/103/42 35/58/75 77/130/7
f 63/105/44 33/54/10 15/26/76
f 66/112/50 63/106/44 24/41/48
f 19/35/28 78/132/11 66/111/50
f 79/133/14 16/27/77 67/114/52
f 25/43/55 79/134/14 67/115/52
f 70/119/58 38/64/12 79/134/14
f 80/136/15 16/27/77 71/120/60
f 26/44/78 80/136/15 71/120/60
f 74/125/67 28/48/79 80/135/15
f 81/137/20 4/7/16 28/47/79
f 10/18/66 81/137/20 28/47/79
f 21/38/69 81/138/20 53/91/22
f 40/69/80 53/92/22 10/18/66
f 1/1/81 82/140/23 40/68/80
f 9/15/82 82/140/23 39/67/83
f 83/141/26 21/38/69 52/90/21
f 27/45/84 52/90/21 9/15/82
f 2/5/85 83/141/26 27/45/84
f 84/142/27 6/10/8 35/57/75
f 17/30/86 84/143/27 35/56/75
f 22/39/31 84/143/27 57/96/32
f 47/81/41 57/96/32 17/30/86
f 5/8/87 85/144/30 47/81/41
f 48/84/88 56/95/89 85/144/30
f 86/145/34 22/39/31 56/95/89
f 36/60/90 56/95/89 18/32/91
f 8/13/92 86/145/34 36/60/90
f 87/146/35 2/4/85 27/46/84
f 61/101/39 27/46/84 9/16/82
f 23/40/74 87/146/35 61/101/39
f 88/147/40 9/16/82 39/66/83
f 1/2/81 88/147/40 39/66/83
f 11/20/93 88/147/40 41/70/94
f 89/149/43 23/40/74 60/100/38
f 29/49/95 60/100/38 11/20/93
f 5/9/87 89/149/43 29/49/95
f 90/151/46 3/6/2 30/50/70
f 65/110/49 30/50/70 12/21/96
f 65/109/49 63/107/44 90/150/46
f 42/72/24 65/110/49 12/21/96
f 2/5/85 91/153/47 42/72/24
f 43/75/37 64/108/97 91/152/47
f 92/154/51 24/42/48 64/108/97
f 31/51/9 64/108/97 13/23/36
f 6/10/8 92/154/51 31/51/9
f 93/156/53 4/7/16 32/52/19
f 69/118/56 32/53/19 14/24/68
f 69/117/56 67/115/52 93/155/53
f 44/76/3 69/118/56 14/24/68
f 3/6/2 94/159/54 44/76/3
f 45/78/45 68/116/98 94/158/54
f 68/116/98 70/119/58 25/43/55
f 15/26/76 95/160/59 68/116/98
f 7/12/5 95/160/59 33/54/10
f 96/161/61 8/14/92 36/59/90
f 18/31/91 96/161/61 36/59/90
f 26/44/78 96/161/61 73/123/63
f 97/163/64 18/32/91 48/84/88
f 5/9/87 97/164/64 48/83/88
f 11/20/93 97/164/64 29/49/95
f 98/165/65 26/44/78 72/122/62
f 41/71/94 72/122/62 11/19/93
f 1/3/81 98/165/65 41/71/94
f 75/127/1 30/50/70 3/6/2
f 76/128/4 50/87/57 7/11/5
f 77/129/7 35/57/75 6/10/8
f 37/62/6 7/12/5 33/54/10
f 38/63/12 8/14/92 34/55/13
f 80/136/15 28/47/79 4/7/16
f 51/89/18 14/24/68 32/53/19
f 52/90/21 21/38/69 53/91/22
f 42/72/24 12/21/96 54/93/25
f 84/143/27 55/94/71 19/33/28
f 85/144/30 56/95/89 22/39/31
f 38/65/12 20/36/72 58/97/33
f 87/146/35 59/99/73 13/22/36
f 60/100/38 23/40/74 61/101/39
f 47/80/41 17/28/86 62/102/42
f 63/104/44 15/25/76 45/77/45
f 91/152/47 64/108/97 24/42/48
f 49/86/29 19/34/28 66/113/50
f 67/114/52 16/27/77 46/79/17
f 94/158/54 68/116/98 25/43/55
f 50/88/57 20/37/72 70/119/58
f 71/120/60 16/27/77 34/55/13
f 72/122/62 26/44/78 73/123/63
f 98/165/65 40/69/80 10/18/66
f 51/89/18 75/127/1 44/76/3
f 54/93/25 75/127/1 51/89/18
f 54/93/25 12/21/96 30/50/70
f 55/94/71 76/128/4 37/61/6
f 58/97/33 76/128/4 55/94/71
f 20/36/72 50/87/57 76/128/4
f 59/98/73 77/129/7 31/51/9
f 23/40/74 62/103/42 77/130/7
f 62/103/42 17/29/86 35/58/75
f 63/105/44 78/132/11 33/54/10
f 66/112/50 78/131/11 63/106/44
f 19/35/28 37/62/6 78/132/11
f 79/133/14 34/55/13 16/27/77
f 25/43/55 70/119/58 79/134/14
f 70/119/58 20/37/72 38/64/12
f 80/136/15 46/79/17 16/27/77
f 26/44/78 74/126/67 80/136/15
f 74/125/67 10/17/66 28/48/79
f 81/137/20 32/52/19 4/7/16
f 10/18/66 53/92/22 81/137/20
f 21/38/69 51/89/18 81/138/20
f 40/69/80 82/139/23 53/92/22
f 1/1/81 39/67/83 82/140/23
f 9/15/82 52/90/21 82/140/23
f 83/141/26 54/93/25 21/38/69
f 27/45/84 83/141/26 52/90/21
f 2/5/85 42/72/24 83/141/26
f 84/142/27 49/86/29 6/10/8
f 17/30/86 57/96/32 84/143/27
f 22/39/31 55/94/71 84/143/27
f 47/81/41 85/144/30 57/96/32
f 5/8/87 48/84/88 85/144/30
f 48/84/88 18/32/91 56/95/89
f 86/145/34 58/97/33 22/39/31
f 36/60/90 86/145/34 56/95/89
f 8/13/92 38/65/12 86/145/34
f 87/146/35 43/73/37 2/4/85
f 61/101/39 87/146/35 27/46/84
f 23/40/74 59/99/73 87/146/35
f 88/147/40 61/101/39 9/16/82
f 1/2/81 41/70/94 88/147/40
f 11/20/93 60/100/38 88/147/40
f 89/149/43 62/103/42 23/40/74
f 29/49/95 89/149/43 60/100/38
f 5/9/87 47/82/41 89/149/43
f 90/151/46 45/77/45 3/6/2
f 65/110/49 90/151/46 30/50/70
f 65/109/49 24/42/48 63/107/44
f 42/72/24 91/153/47 65/110/49
f 2/5/85 43/74/37 91/153/47
f 43/75/37 13/23/36 64/108/97
f 92/154/51 66/113/50 24/42/48
f 31/51/9 92/154/51 64/108/97
f 6/10/8 49/86/29 92/154/51
f 93/156/53 46/79/17 4/7/16
f 69/118/56 93/157/53 32/53/19
f 69/117/56 25/43/55 67/115/52
f 44/76/3 94/159/54 69/118/56
f 3/6/2 45/77/45 94/159/54
f 45/78/45 15/26/76 68/116/98
f 68/116/98 95/160/59 70/119/58
f 15/26/76 33/54/10 95/160/59
f 7/12/5 50/88/57 95/160/59
f 96/161/61 34/55/13 8/14/92
f 18/31/91 73/123/63 96/161/61
f 26/44/78 71/120/60 96/161/61
f 97/163/64 73/124/63 18/32/91
f 5/9/87 29/49/95 97/164/64
f 11/20/93 72/121/62 97/164/64
f 98/165/65 74/126/67 26/44/78
f 41/71/94 98/165/65 72/122/62
f 1/3/81 40/69/80 98/165/65
