# Blender 3.5.0
# www.blender.org
mtllib float.mtl
o float
v 2.663264 -1.688693 0.953906
v 2.650430 -1.610544 0.897907
v 1.580436 -0.842412 0.897907
v 1.502287 -0.855246 0.953906
v 2.663264 -1.688694 -2.822846
v 2.650430 -1.610545 -2.766846
v 1.580436 -0.842413 -2.766847
v 1.502287 -0.855247 -2.822846
v 1.298446 -1.235220 -2.766847
v 1.285612 -1.157071 -2.822846
v 2.446589 -1.990518 -2.822846
v 2.368438 -2.003352 -2.766846
v 2.507927 -1.905073 0.953906
v 1.346951 -1.071626 0.953906
v 1.285612 -1.157071 0.953906
v 2.446589 -1.990517 0.953907
v 2.564903 -1.753414 0.842494
v 1.472423 -0.969140 0.842494
v 1.383973 -1.092350 0.842494
v 2.476453 -1.876624 0.842494
v 1.440949 -0.940691 0.953906
v 2.601923 -1.774137 0.953906
v 2.601923 -1.774138 -2.822846
v 1.440949 -0.940691 -2.822846
v 2.476453 -1.876624 -2.711432
v 1.383973 -1.092350 -2.711432
v 1.472423 -0.969140 -2.711432
v 2.564903 -1.753414 -2.711432
v 1.346951 -1.071627 -2.822846
v 2.507927 -1.905073 -2.822846
v 2.368438 -2.003351 0.897907
v 1.298446 -1.235219 0.897907
v -2.663264 -1.688693 0.953906
v -2.650430 -1.610544 0.897907
v -1.580436 -0.842412 0.897907
v -1.502287 -0.855246 0.953906
v -2.663264 -1.688694 -2.822846
v -2.650430 -1.610545 -2.766846
v -1.580436 -0.842413 -2.766847
v -1.502287 -0.855247 -2.822846
v -1.298446 -1.235220 -2.766847
v -1.285612 -1.157071 -2.822846
v -2.446589 -1.990518 -2.822846
v -2.368438 -2.003352 -2.766846
v -2.507927 -1.905073 0.953906
v -1.346951 -1.071626 0.953906
v -1.285612 -1.157071 0.953906
v -2.446589 -1.990517 0.953907
v -2.564903 -1.753414 0.842494
v -1.472423 -0.969140 0.842494
v -1.383973 -1.092350 0.842494
v -2.476453 -1.876624 0.842494
v -1.440949 -0.940691 0.953906
v -2.601923 -1.774137 0.953906
v -2.601923 -1.774138 -2.822846
v -1.440949 -0.940691 -2.822846
v -2.476453 -1.876624 -2.711432
v -1.383973 -1.092350 -2.711432
v -1.472423 -0.969140 -2.711432
v -2.564903 -1.753414 -2.711432
v -1.346951 -1.071627 -2.822846
v -2.507927 -1.905073 -2.822846
v -2.368438 -2.003351 0.897907
v -1.298446 -1.235219 0.897907
vn 0.4124 0.5744 0.7071
vn 0.9868 0.1621 -0.0000
vn -0.1621 0.9868 -0.0000
vn 0.4124 0.5744 -0.7071
vn -0.4124 -0.5744 -0.7071
vn -0.0000 -0.0000 1.0000
vn 0.5832 0.8123 -0.0000
vn -0.0000 -0.0000 -1.0000
vn -0.5832 -0.8123 -0.0000
vn -0.8124 0.5832 -0.0000
vn -0.8123 0.5832 -0.0000
vn 0.8124 -0.5832 -0.0000
vn 0.8123 -0.5832 -0.0000
vn -0.5826 -0.8116 0.0426
vn 0.5826 0.8116 0.0426
vn 0.5826 0.8116 0.0427
vn 0.5826 0.8116 -0.0426
vn -0.5826 -0.8116 -0.0426
vn -0.6705 -0.7419 -0.0000
vn 0.4884 0.8726 -0.0000
vn -0.4885 -0.8726 -0.0000
vn 0.6705 0.7419 -0.0000
vn 0.6706 0.7419 -0.0000
vn -0.4124 -0.5744 0.7071
vn 0.1621 -0.9868 -0.0000
vn -0.9868 -0.1621 -0.0000
vn -0.4124 0.5744 0.7071
vn -0.9868 0.1621 -0.0000
vn 0.1621 0.9868 -0.0000
vn -0.4124 0.5744 -0.7071
vn 0.4124 -0.5744 -0.7071
vn -0.5832 0.8123 -0.0000
vn 0.5832 -0.8123 -0.0000
vn 0.8124 0.5832 -0.0000
vn 0.8123 0.5832 -0.0000
vn -0.8124 -0.5832 -0.0000
vn -0.8123 -0.5832 -0.0000
vn 0.5826 -0.8116 0.0426
vn -0.5826 0.8116 0.0426
vn -0.5826 0.8116 0.0427
vn -0.5826 0.8116 -0.0426
vn 0.5826 -0.8116 -0.0426
vn 0.6705 -0.7419 -0.0000
vn -0.4884 0.8726 -0.0000
vn 0.4885 -0.8726 -0.0000
vn -0.6705 0.7419 -0.0000
vn -0.6706 0.7419 -0.0000
vn 0.4124 -0.5744 0.7071
vn -0.1621 -0.9868 -0.0000
vn 0.9868 -0.1621 -0.0000
vt 0.398293 0.015701
vt 0.404396 0.020401
vt 0.974487 0.892302
vt 0.914886 0.037201
vt 0.383400 0.031906
vt 0.032800 0.031906
vt 0.903793 0.061401
vt 0.017900 0.015701
vt 0.011800 0.020401
vt 0.740997 0.988000
vt 0.299698 0.893002
vt 0.914886 0.768803
vt 0.404396 0.791702
vt 0.398293 0.796402
vt 0.383400 0.780300
vt 0.032900 0.780300
vt 0.011800 0.791702
vt 0.017900 0.796402
vt 0.059600 0.815002
vt 0.903793 0.793102
vt 0.798599 0.780300
vt 0.813492 0.796402
vt 0.027700 0.913200
vt 0.832794 0.770802
vt 0.819687 0.791702
vt 0.267693 0.991200
vt 0.433197 0.796402
vt 0.985886 0.791103
vt 0.427094 0.791702
vt 0.448097 0.780300
vt 0.942398 0.813900
vt 0.965500 0.059509
vt 0.708786 0.909500
vt 0.853088 0.039108
vt 0.701797 0.892302
vt 0.832794 0.039108
vt 0.813492 0.015701
vt 0.819687 0.020401
vt 0.935394 0.796703
vt 0.433197 0.015701
vt 0.985886 0.059509
vt 0.427094 0.020401
vt 0.953186 0.859703
vt 0.935287 0.059509
vt 0.733292 0.949700
vt 0.883392 0.061401
vt 0.723190 0.924900
vt 0.853088 0.061401
vt 0.942993 0.835003
vt 0.965500 0.059509
vt 0.733887 0.970800
vt 0.883392 0.061401
vt 0.967499 0.875200
vt 0.935287 0.037201
vt 0.293900 0.910601
vt 0.935287 0.768803
vt 0.883392 0.793102
vt 0.053900 0.832603
vt 0.272499 0.952500
vt 0.965500 0.768803
vt 0.046599 0.879101
vt 0.853088 0.770802
vt 0.054899 0.853703
vt 0.883392 0.770802
vt 0.280800 0.927101
vt 0.935287 0.768803
vt 0.033400 0.895601
vt 0.853088 0.770802
vt 0.965500 0.791103
vt 0.273499 0.973600
vt 0.448097 0.031906
vt 0.798599 0.031906
vt 0.404396 0.020401
vt 0.398293 0.015701
vt 0.974487 0.892302
vt 0.914886 0.037201
vt 0.383400 0.031906
vt 0.032800 0.031906
vt 0.011800 0.020401
vt 0.017900 0.015701
vt 0.740997 0.988000
vt 0.903793 0.061401
vt 0.299698 0.893002
vt 0.404396 0.791702
vt 0.398293 0.796402
vt 0.914886 0.768803
vt 0.383400 0.780300
vt 0.032900 0.780300
vt 0.011800 0.791702
vt 0.017900 0.796402
vt 0.059600 0.815002
vt 0.903793 0.793102
vt 0.798599 0.780300
vt 0.832794 0.770802
vt 0.813492 0.796402
vt 0.027700 0.913200
vt 0.819687 0.791702
vt 0.433197 0.796402
vt 0.267693 0.991200
vt 0.985886 0.791103
vt 0.427094 0.791702
vt 0.448097 0.780300
vt 0.942398 0.813900
vt 0.965500 0.059509
vt 0.708786 0.909500
vt 0.853088 0.039108
vt 0.701797 0.892302
vt 0.832794 0.039108
vt 0.813492 0.015701
vt 0.819687 0.020401
vt 0.935394 0.796703
vt 0.985886 0.059509
vt 0.433197 0.015701
vt 0.427094 0.020401
vt 0.953186 0.859703
vt 0.935287 0.059509
vt 0.883392 0.061401
vt 0.733292 0.949700
vt 0.723190 0.924900
vt 0.853088 0.061401
vt 0.965500 0.059509
vt 0.942993 0.835003
vt 0.733887 0.970800
vt 0.883392 0.061401
vt 0.967499 0.875200
vt 0.935287 0.037201
vt 0.935287 0.768803
vt 0.293900 0.910601
vt 0.053900 0.832603
vt 0.883392 0.793102
vt 0.272499 0.952500
vt 0.965500 0.768803
vt 0.046599 0.879101
vt 0.853088 0.770802
vt 0.054899 0.853703
vt 0.883392 0.770802
vt 0.280800 0.927101
vt 0.935287 0.768803
vt 0.853088 0.770802
vt 0.033400 0.895601
vt 0.273499 0.973600
vt 0.965500 0.791103
vt 0.448097 0.031906
vt 0.798599 0.031906
s 1
f 2/5/1 4/8/1 1/1/1
f 5/13/2 2/5/2 1/2/2
f 8/17/3 3/6/3 7/16/3
f 6/15/4 8/18/4 7/16/4
f 10/22/5 12/30/5 9/21/5
f 13/31/6 15/35/6 16/39/6
f 17/43/6 19/47/6 20/49/6
f 4/10/6 22/53/6 1/3/6
f 7/16/7 2/5/7 6/15/7
f 23/55/8 8/19/8 5/11/8
f 26/61/8 28/65/8 25/59/8
f 10/23/8 30/70/8 11/26/8
f 32/72/9 12/30/9 31/71/9
f 29/68/10 15/36/10 14/34/10
f 27/64/10 19/48/11 18/46/11
f 8/20/10 21/52/10 4/7/10
f 13/32/12 11/28/12 30/69/12
f 17/44/13 25/60/12 28/66/12
f 1/4/13 23/56/13 5/12/13
f 18/45/14 22/53/14 21/51/14
f 13/31/15 19/47/16 14/33/16
f 26/61/17 30/70/17 29/67/17
f 28/65/18 24/58/18 23/55/18
f 27/64/19 21/52/19 24/57/19
f 14/34/20 26/62/20 29/68/20
f 22/54/21 28/66/21 23/56/21
f 25/60/22 13/32/23 30/69/22
f 15/37/24 31/71/24 16/40/24
f 11/29/25 31/71/25 12/30/25
f 32/72/26 10/25/26 9/21/26
f 34/77/27 36/80/27 35/78/27
f 34/77/28 37/84/28 33/73/28
f 40/89/29 35/78/29 36/79/29
f 40/90/30 38/87/30 39/88/30
f 42/95/31 44/102/31 43/98/31
f 47/107/6 45/103/6 48/111/6
f 51/119/6 49/115/6 52/122/6
f 36/81/6 54/125/6 53/123/6
f 39/88/32 34/77/32 35/78/32
f 40/91/8 55/128/8 37/83/8
f 58/133/8 60/137/8 59/135/8
f 42/96/8 62/141/8 61/140/8
f 64/144/33 44/102/33 41/93/33
f 61/139/34 47/108/34 42/94/34
f 59/136/34 51/120/35 58/134/34
f 40/92/34 53/124/34 56/130/34
f 45/104/36 43/100/36 48/112/36
f 49/116/37 57/132/36 52/121/37
f 33/76/37 55/127/37 54/126/37
f 50/118/38 54/125/38 49/115/38
f 51/119/39 45/103/39 46/105/40
f 58/133/41 62/141/41 57/131/41
f 60/137/42 56/129/42 59/135/42
f 59/136/43 53/124/43 50/117/43
f 58/134/44 46/106/44 61/139/44
f 60/138/45 54/126/45 55/127/45
f 57/132/46 45/104/47 52/121/47
f 63/143/48 47/109/48 48/113/48
f 43/101/49 63/143/49 48/114/49
f 42/97/50 64/144/50 41/93/50
f 2/5/1 3/6/1 4/8/1
f 5/13/2 6/15/2 2/5/2
f 8/17/3 4/9/3 3/6/3
f 6/15/4 5/14/4 8/18/4
f 10/22/5 11/27/5 12/30/5
f 13/31/6 14/33/6 15/35/6
f 17/43/6 18/45/6 19/47/6
f 4/10/6 21/51/6 22/53/6
f 7/16/7 3/6/7 2/5/7
f 23/55/8 24/58/8 8/19/8
f 26/61/8 27/63/8 28/65/8
f 10/23/8 29/67/8 30/70/8
f 32/72/9 9/21/9 12/30/9
f 29/68/10 10/24/10 15/36/10
f 27/64/10 26/62/10 19/48/11
f 8/20/10 24/57/10 21/52/10
f 13/32/12 16/41/12 11/28/12
f 17/44/13 20/50/13 25/60/12
f 1/4/13 22/54/13 23/56/13
f 18/45/14 17/43/14 22/53/14
f 13/31/15 20/49/15 19/47/16
f 26/61/17 25/59/17 30/70/17
f 28/65/18 27/63/18 24/58/18
f 27/64/19 18/46/19 21/52/19
f 14/34/20 19/48/20 26/62/20
f 22/54/21 17/44/21 28/66/21
f 25/60/22 20/50/23 13/32/23
f 15/37/24 32/72/24 31/71/24
f 11/29/25 16/42/25 31/71/25
f 32/72/26 15/38/26 10/25/26
f 34/77/27 33/74/27 36/80/27
f 34/77/28 38/87/28 37/84/28
f 40/89/29 39/88/29 35/78/29
f 40/90/30 37/85/30 38/87/30
f 42/95/31 41/93/31 44/102/31
f 47/107/6 46/105/6 45/103/6
f 51/119/6 50/118/6 49/115/6
f 36/81/6 33/75/6 54/125/6
f 39/88/32 38/87/32 34/77/32
f 40/91/8 56/129/8 55/128/8
f 58/133/8 57/131/8 60/137/8
f 42/96/8 43/99/8 62/141/8
f 64/144/33 63/143/33 44/102/33
f 61/139/34 46/106/34 47/108/34
f 59/136/34 50/117/35 51/120/35
f 40/92/34 36/82/34 53/124/34
f 45/104/36 62/142/36 43/100/36
f 49/116/37 60/138/36 57/132/36
f 33/76/37 37/86/37 55/127/37
f 50/118/38 53/123/38 54/125/38
f 51/119/39 52/122/39 45/103/39
f 58/133/41 61/140/41 62/141/41
f 60/137/42 55/128/42 56/129/42
f 59/136/43 56/130/43 53/124/43
f 58/134/44 51/120/44 46/106/44
f 60/138/45 49/116/45 54/126/45
f 57/132/46 62/142/46 45/104/47
f 63/143/48 64/144/48 47/109/48
f 43/101/49 44/102/49 63/143/49
f 42/97/50 47/110/50 64/144/50
